<svg width="58" height="61" viewBox="0 0 58 61" fill="none" xmlns="http://www.w3.org/2000/svg">
<path d="M24.0852 57.5602C24.0852 59.328 26.315 60.7612 29.0656 60.7612C31.8162 60.7612 34.046 59.3281 34.046 57.5602H24.0852Z" fill="#FFCD9B"/>
<path d="M50.9795 39.0601H29.0656H7.15167C7.15167 39.0601 3.1673 43.0444 3.1673 47.0288C3.1673 47.0288 17.1125 39.0601 20.1008 52.0092C20.7064 54.6338 21.0968 60.974 29.0656 57.9858C37.0343 60.974 37.4247 54.6338 38.0303 52.0092C41.0186 39.0601 54.9638 47.0288 54.9638 47.0288C54.9637 43.0444 50.9795 39.0601 50.9795 39.0601Z" fill="#FFDEB7"/>
<path d="M34.1207 18.9256C34.1207 18.9256 49.062 0 54.0424 0C57.0306 0 52.0502 23.9061 49.062 31.8747L34.1207 18.9256Z" fill="#FF8C46"/>
<path d="M54.0424 0C44.0815 6.97259 40.0971 23.9061 40.0971 23.9061L39.7542 23.8081L34.1207 18.9257C34.1207 18.9257 49.0619 0 54.0424 0Z" fill="#FFA54B"/>
<path d="M23.0144 18.9256C23.0144 18.9256 8.07307 0 3.09267 0C0.104457 0 5.08486 23.9061 8.07308 31.8747L23.0144 18.9256Z" fill="#FF8C46"/>
<path d="M3.09271 0C13.0535 6.97259 17.0379 23.9061 17.0379 23.9061L17.3807 23.8081L23.0143 18.9257C23.0143 18.9257 8.07311 0 3.09271 0Z" fill="#FFA54B"/>
<path d="M0.179077 45.8199C0.179077 45.8199 11.136 38.8473 19.1046 43.8277C23.328 46.4674 22.0929 53.7471 29.0654 53.7471C36.038 53.7471 34.8029 46.4674 39.0263 43.8277C46.995 38.8473 57.9518 45.8199 57.9518 45.8199C52.9714 27.8903 40.3315 15.9373 29.0654 15.9373C17.7994 15.9373 5.15948 27.8903 0.179077 45.8199Z" fill="#FFA54B"/>
<path d="M21.0969 40.8395C22.1971 40.8395 23.089 39.9475 23.089 38.8473C23.089 37.747 22.1971 36.8551 21.0969 36.8551C19.9966 36.8551 19.1047 37.747 19.1047 38.8473C19.1047 39.9475 19.9966 40.8395 21.0969 40.8395Z" fill="#464655"/>
<path d="M37.0344 40.8395C38.1346 40.8395 39.0265 39.9475 39.0265 38.8473C39.0265 37.747 38.1346 36.8551 37.0344 36.8551C35.9341 36.8551 35.0422 37.747 35.0422 38.8473C35.0422 39.9475 35.9341 40.8395 37.0344 40.8395Z" fill="#464655"/>
<path d="M32.5519 53.1867C32.5519 54.3901 30.991 56.2372 29.0656 56.2372C27.1403 56.2372 25.5793 54.3901 25.5793 53.1867C25.5793 51.9833 27.1403 51.0077 29.0656 51.0077C30.991 51.0077 32.5519 51.9833 32.5519 53.1867Z" fill="#464655"/>
</svg>
