<svg width="271" height="69" viewBox="0 0 271 69" fill="none" xmlns="http://www.w3.org/2000/svg">
<path d="M31.2179 65.4926V55.3107H32.1078V59.3129H32.1874C32.2868 59.0842 32.4293 58.8489 32.615 58.6069C32.8039 58.3649 33.0508 58.1628 33.3557 58.0004C33.664 57.8346 34.0517 57.7518 34.5191 57.7518C35.1455 57.7518 35.6957 57.9175 36.1696 58.2489C36.6436 58.5771 37.0132 59.0378 37.2783 59.631C37.5435 60.221 37.676 60.9087 37.676 61.6943C37.676 62.4831 37.5435 63.1741 37.2783 63.7674C37.0165 64.3607 36.6486 64.823 36.1746 65.1545C35.704 65.4859 35.1571 65.6516 34.534 65.6516C34.07 65.6516 33.6822 65.5688 33.3706 65.4031C33.0624 65.2373 32.8138 65.0335 32.6249 64.7916C32.436 64.5463 32.2901 64.3077 32.1874 64.0757H32.078V65.4926H31.2179ZM32.0929 61.6793C32.0929 62.2958 32.1841 62.8427 32.3664 63.32C32.552 63.7939 32.8171 64.1668 33.1618 64.4386C33.5098 64.707 33.9308 64.8413 34.4246 64.8413C34.9317 64.8413 35.3609 64.7021 35.7123 64.4237C36.0636 64.1419 36.3304 63.7624 36.5127 63.2852C36.695 62.8079 36.7861 62.2726 36.7861 61.6793C36.7861 61.0927 36.695 60.564 36.5127 60.0934C36.3337 59.6228 36.0686 59.2499 35.7172 58.9748C35.3659 58.6964 34.935 58.5572 34.4246 58.5572C33.9275 58.5572 33.5049 58.6914 33.1569 58.9599C32.8122 59.225 32.5487 59.5929 32.3664 60.0636C32.1841 60.5309 32.0929 61.0695 32.0929 61.6793ZM39.963 68.3562C39.7873 68.3562 39.6232 68.3396 39.4708 68.3065C39.3183 68.2733 39.1973 68.2369 39.1078 68.1971L39.3465 67.4166C39.6481 67.5094 39.9166 67.5425 40.1519 67.516C40.3872 67.4928 40.596 67.3867 40.7783 67.1978C40.9606 67.0122 41.123 66.7272 41.2655 66.3427L41.5439 65.5671L38.735 57.8562H39.6945L41.9615 64.3242H42.0311L44.2982 57.8562H45.2577L42.0262 66.7007C41.8903 67.0685 41.7229 67.3751 41.524 67.6204C41.3252 67.869 41.0948 68.0529 40.833 68.1722C40.5745 68.2949 40.2845 68.3562 39.963 68.3562ZM47.695 65.2987C47.4995 65.2987 47.3304 65.2291 47.1879 65.0899C47.0487 64.9507 46.9791 64.7816 46.9791 64.5828C46.9791 64.3872 47.0487 64.2198 47.1879 64.0806C47.3304 63.9381 47.4995 63.8668 47.695 63.8668C47.8939 63.8668 48.0629 63.9381 48.2021 64.0806C48.3413 64.2198 48.4109 64.3872 48.4109 64.5828C48.4109 64.7153 48.3778 64.8363 48.3115 64.9457C48.2485 65.0517 48.1624 65.1379 48.053 65.2042C47.9469 65.2672 47.8276 65.2987 47.695 65.2987ZM47.695 59.7901C47.4995 59.7901 47.3304 59.7205 47.1879 59.5813C47.0487 59.4421 46.9791 59.2731 46.9791 59.0742C46.9791 58.8787 47.0487 58.7113 47.1879 58.5721C47.3304 58.4296 47.4995 58.3583 47.695 58.3583C47.8939 58.3583 48.0629 58.4296 48.2021 58.5721C48.3413 58.7113 48.4109 58.8787 48.4109 59.0742C48.4109 59.2068 48.3778 59.3278 48.3115 59.4372C48.2485 59.5432 48.1624 59.6294 48.053 59.6957C47.9469 59.7587 47.8276 59.7901 47.695 59.7901ZM54.8703 65.4926V55.3107H58.1565C58.879 55.3107 59.4823 55.4417 59.9662 55.7035C60.4534 55.962 60.8196 56.3216 61.0649 56.7823C61.3135 57.2397 61.4378 57.765 61.4378 58.3583C61.4378 58.9516 61.3135 59.4753 61.0649 59.9293C60.8196 60.3834 60.455 60.7381 59.9711 60.9933C59.4872 61.2485 58.8873 61.3761 58.1714 61.3761H55.3724V60.5259H58.1466C58.6769 60.5259 59.1177 60.4381 59.469 60.2624C59.8236 60.0868 60.0871 59.8365 60.2595 59.5117C60.4351 59.1869 60.523 58.8024 60.523 58.3583C60.523 57.9142 60.4351 57.5264 60.2595 57.195C60.0838 56.8602 59.8187 56.6017 59.464 56.4194C59.1127 56.2371 58.6686 56.146 58.1316 56.146H55.8V65.4926H54.8703ZM59.3596 60.8988L61.8653 65.4926H60.7914L58.3106 60.8988H59.3596ZM63.5283 65.4926V57.8562H64.4182V65.4926H63.5283ZM63.9807 56.5437C63.7984 56.5437 63.6427 56.4824 63.5134 56.3597C63.3841 56.2338 63.3195 56.083 63.3195 55.9073C63.3195 55.7317 63.3841 55.5825 63.5134 55.4599C63.6427 55.3339 63.7984 55.271 63.9807 55.271C64.163 55.271 64.3188 55.3339 64.448 55.4599C64.5773 55.5825 64.6419 55.7317 64.6419 55.9073C64.6419 56.083 64.5773 56.2338 64.448 56.3597C64.3188 56.4824 64.163 56.5437 63.9807 56.5437ZM67.6435 60.7198V65.4926H66.7586V57.8562H67.6187V59.0543H67.6982C67.8772 58.6632 68.1556 58.35 68.5335 58.1147C68.9146 57.8761 69.3853 57.7568 69.9454 57.7568C70.4591 57.7568 70.9099 57.8645 71.2977 58.0799C71.6888 58.292 71.992 58.6052 72.2075 59.0195C72.4262 59.4338 72.5356 59.9426 72.5356 60.5458V65.4926H71.6506V60.6005C71.6506 59.9741 71.475 59.4786 71.1237 59.114C70.7756 58.7494 70.3083 58.5671 69.7217 58.5671C69.3206 58.5671 68.9643 58.6533 68.6528 58.8257C68.3412 58.998 68.0943 59.2466 67.912 59.5714C67.733 59.8929 67.6435 60.2757 67.6435 60.7198ZM77.9534 65.6516C77.2408 65.6516 76.6243 65.4859 76.1039 65.1545C75.5836 64.8197 75.1809 64.3574 74.8958 63.7674C74.6141 63.1741 74.4733 62.4914 74.4733 61.7191C74.4733 60.9502 74.6141 60.2674 74.8958 59.6708C75.1809 59.0709 75.5736 58.6019 76.0741 58.2639C76.5779 57.9225 77.1596 57.7518 77.8191 57.7518C78.2334 57.7518 78.6328 57.828 79.0173 57.9805C79.4018 58.1296 79.7465 58.36 80.0514 58.6715C80.3596 58.9798 80.6032 59.3692 80.7822 59.8399C80.9612 60.3072 81.0507 60.8607 81.0507 61.5004V61.9379H75.0848V61.1573H80.1458C80.1458 60.6668 80.0464 60.226 79.8476 59.8349C79.652 59.4405 79.3786 59.1289 79.0272 58.9002C78.6792 58.6715 78.2765 58.5572 77.8191 58.5572C77.3352 58.5572 76.9093 58.6864 76.5414 58.945C76.1735 59.2035 75.8852 59.5449 75.6764 59.9691C75.4709 60.3934 75.3665 60.8574 75.3632 61.3612V61.8285C75.3632 62.435 75.4676 62.9653 75.6764 63.4194C75.8885 63.8702 76.1885 64.2198 76.5762 64.4684C76.964 64.717 77.4231 64.8413 77.9534 64.8413C78.3146 64.8413 78.6312 64.7849 78.9029 64.6722C79.178 64.5596 79.4084 64.4087 79.594 64.2198C79.7829 64.0276 79.9254 63.8171 80.0216 63.5884L80.8618 63.8619C80.7458 64.1834 80.5552 64.48 80.29 64.7518C80.0282 65.0236 79.7001 65.2423 79.3056 65.408C78.9145 65.5704 78.4638 65.6516 77.9534 65.6516ZM83.8857 55.3107V65.4926H83.0008V55.3107H83.8857ZM87.1123 55.3107V65.4926H86.2273V55.3107H87.1123ZM90.0704 68.3562C89.8947 68.3562 89.7307 68.3396 89.5782 68.3065C89.4257 68.2733 89.3048 68.2369 89.2153 68.1971L89.4539 67.4166C89.7555 67.5094 90.024 67.5425 90.2593 67.516C90.4946 67.4928 90.7034 67.3867 90.8857 67.1978C91.068 67.0122 91.2304 66.7272 91.3729 66.3427L91.6514 65.5671L88.8424 57.8562H89.8019L92.069 64.3242H92.1386L94.4056 57.8562H95.3651L92.1336 66.7007C91.9977 67.0685 91.8303 67.3751 91.6315 67.6204C91.4326 67.869 91.2023 68.0529 90.9404 68.1722C90.6819 68.2949 90.3919 68.3562 90.0704 68.3562ZM101.233 55.3107L104.415 64.2845H104.504L107.686 55.3107H108.66L104.957 65.4926H103.962L100.258 55.3107H101.233ZM111.643 65.6666C111.183 65.6666 110.762 65.5771 110.381 65.3981C109.999 65.2158 109.696 64.954 109.471 64.6126C109.245 64.2679 109.133 63.8503 109.133 63.3597C109.133 62.9819 109.204 62.6637 109.346 62.4052C109.489 62.1467 109.691 61.9346 109.953 61.7688C110.215 61.6031 110.525 61.4722 110.883 61.3761C111.241 61.28 111.635 61.2054 112.066 61.1524C112.494 61.0993 112.855 61.0529 113.15 61.0132C113.448 60.9734 113.675 60.9104 113.831 60.8242C113.987 60.7381 114.065 60.5989 114.065 60.4066V60.2276C114.065 59.7073 113.909 59.298 113.597 58.9997C113.289 58.698 112.845 58.5472 112.265 58.5472C111.715 58.5472 111.266 58.6682 110.918 58.9102C110.573 59.1521 110.331 59.4372 110.192 59.7653L109.351 59.462C109.524 59.0444 109.762 58.7113 110.067 58.4627C110.372 58.2108 110.714 58.0302 111.092 57.9208C111.469 57.8081 111.852 57.7518 112.24 57.7518C112.532 57.7518 112.835 57.7899 113.15 57.8661C113.468 57.9424 113.763 58.0749 114.035 58.2639C114.306 58.4495 114.527 58.7096 114.696 59.0444C114.865 59.3758 114.949 59.7968 114.949 60.3072V65.4926H114.065V64.2845H114.01C113.904 64.5098 113.746 64.7286 113.538 64.9407C113.329 65.1528 113.067 65.3268 112.752 65.4627C112.437 65.5986 112.068 65.6666 111.643 65.6666ZM111.763 64.8562C112.233 64.8562 112.641 64.7518 112.986 64.543C113.33 64.3342 113.596 64.0574 113.781 63.7127C113.97 63.3647 114.065 62.9819 114.065 62.5643V61.4606C113.998 61.5236 113.887 61.5799 113.731 61.6296C113.579 61.6793 113.402 61.7241 113.199 61.7639C113.001 61.8003 112.802 61.8318 112.603 61.8583C112.404 61.8848 112.225 61.908 112.066 61.9279C111.635 61.981 111.267 62.0638 110.962 62.1765C110.657 62.2892 110.424 62.445 110.261 62.6438C110.099 62.8394 110.018 63.0913 110.018 63.3995C110.018 63.8635 110.183 64.2231 110.515 64.4783C110.846 64.7302 111.262 64.8562 111.763 64.8562ZM122.434 59.5316L121.624 59.7603C121.544 59.5316 121.432 59.3245 121.286 59.1389C121.14 58.9533 120.949 58.8058 120.714 58.6964C120.482 58.587 120.194 58.5323 119.849 58.5323C119.332 58.5323 118.908 58.655 118.576 58.9002C118.245 59.1455 118.079 59.462 118.079 59.8498C118.079 60.1779 118.192 60.4447 118.417 60.6502C118.646 60.8524 118.997 61.0132 119.471 61.1325L120.625 61.4158C121.264 61.5716 121.743 61.8185 122.061 62.1566C122.383 62.4947 122.544 62.9189 122.544 63.4293C122.544 63.8602 122.424 64.243 122.186 64.5778C121.947 64.9125 121.614 65.176 121.186 65.3683C120.762 65.5572 120.27 65.6516 119.71 65.6516C118.964 65.6516 118.349 65.4843 117.865 65.1495C117.381 64.8114 117.072 64.3242 116.936 63.6879L117.786 63.4791C117.895 63.9331 118.109 64.2762 118.427 64.5082C118.749 64.7402 119.171 64.8562 119.695 64.8562C120.281 64.8562 120.75 64.7253 121.102 64.4634C121.453 64.1983 121.629 63.8668 121.629 63.4691C121.629 63.1609 121.526 62.9024 121.321 62.6935C121.115 62.4814 120.804 62.3257 120.386 62.2262L119.138 61.9279C118.475 61.7688 117.985 61.5169 117.666 61.1722C117.348 60.8275 117.189 60.4 117.189 59.8896C117.189 59.4686 117.304 59.0991 117.532 58.7809C117.761 58.4594 118.076 58.2075 118.477 58.0252C118.878 57.8429 119.335 57.7518 119.849 57.7518C120.548 57.7518 121.107 57.9109 121.524 58.2291C121.945 58.5439 122.249 58.9781 122.434 59.5316ZM127.464 65.6516C126.781 65.6516 126.187 65.481 125.679 65.1396C125.176 64.7982 124.785 64.3309 124.506 63.7376C124.228 63.1443 124.088 62.4682 124.088 61.7092C124.088 60.9435 124.229 60.2624 124.511 59.6658C124.796 59.0693 125.191 58.6019 125.694 58.2639C126.198 57.9225 126.783 57.7518 127.449 57.7518C127.96 57.7518 128.422 57.8512 128.836 58.0501C129.251 58.2456 129.592 58.5224 129.861 58.8803C130.132 59.235 130.303 59.6493 130.373 60.1232H129.478C129.385 59.6924 129.161 59.3245 128.807 59.0195C128.455 58.7113 128.008 58.5572 127.464 58.5572C126.977 58.5572 126.546 58.6898 126.172 58.9549C125.797 59.2167 125.504 59.583 125.292 60.0536C125.083 60.521 124.978 61.0629 124.978 61.6793C124.978 62.2991 125.081 62.8477 125.287 63.3249C125.492 63.7989 125.78 64.1701 126.152 64.4386C126.526 64.707 126.964 64.8413 127.464 64.8413C127.802 64.8413 128.111 64.7783 128.389 64.6524C128.671 64.5231 128.906 64.3408 129.095 64.1055C129.287 63.8702 129.416 63.5901 129.483 63.2653H130.378C130.311 63.726 130.147 64.137 129.885 64.4982C129.627 64.8562 129.29 65.1379 128.876 65.3434C128.465 65.5489 127.995 65.6516 127.464 65.6516ZM135.242 65.6516C134.583 65.6516 133.999 65.4843 133.492 65.1495C132.988 64.8148 132.594 64.3524 132.309 63.7624C132.024 63.1692 131.881 62.4847 131.881 61.7092C131.881 60.927 132.024 60.2392 132.309 59.646C132.594 59.0494 132.988 58.5854 133.492 58.2539C133.999 57.9192 134.583 57.7518 135.242 57.7518C135.902 57.7518 136.484 57.9192 136.987 58.2539C137.491 58.5887 137.885 59.0527 138.171 59.646C138.459 60.2392 138.603 60.927 138.603 61.7092C138.603 62.4847 138.461 63.1692 138.175 63.7624C137.89 64.3524 137.494 64.8148 136.987 65.1495C136.484 65.4843 135.902 65.6516 135.242 65.6516ZM135.242 64.8413C135.773 64.8413 136.222 64.6988 136.59 64.4137C136.957 64.1287 137.236 63.7492 137.425 63.2752C137.617 62.8013 137.713 62.2792 137.713 61.7092C137.713 61.1391 137.617 60.6154 137.425 60.1382C137.236 59.6609 136.957 59.2781 136.59 58.9897C136.222 58.7014 135.773 58.5572 135.242 58.5572C134.715 58.5572 134.266 58.7014 133.895 58.9897C133.527 59.2781 133.247 59.6609 133.055 60.1382C132.866 60.6154 132.771 61.1391 132.771 61.7092C132.771 62.2792 132.866 62.8013 133.055 63.2752C133.247 63.7492 133.527 64.1287 133.895 64.4137C134.263 64.6988 134.712 64.8413 135.242 64.8413ZM141.431 60.7198V65.4926H140.546V57.8562H141.406V59.0543H141.485C141.664 58.6632 141.943 58.35 142.321 58.1147C142.702 57.8761 143.172 57.7568 143.732 57.7568C144.246 57.7568 144.697 57.8645 145.085 58.0799C145.476 58.292 145.779 58.6052 145.995 59.0195C146.213 59.4338 146.323 59.9426 146.323 60.5458V65.4926H145.438V60.6005C145.438 59.9741 145.262 59.4786 144.911 59.114C144.563 58.7494 144.095 58.5671 143.509 58.5671C143.108 58.5671 142.751 58.6533 142.44 58.8257C142.128 58.998 141.881 59.2466 141.699 59.5714C141.52 59.8929 141.431 60.2757 141.431 60.7198ZM151.636 65.6516C150.953 65.6516 150.358 65.481 149.851 65.1396C149.347 64.7982 148.956 64.3309 148.678 63.7376C148.4 63.1443 148.26 62.4682 148.26 61.7092C148.26 60.9435 148.401 60.2624 148.683 59.6658C148.968 59.0693 149.362 58.6019 149.866 58.2639C150.37 57.9225 150.955 57.7518 151.621 57.7518C152.132 57.7518 152.594 57.8512 153.008 58.0501C153.423 58.2456 153.764 58.5224 154.032 58.8803C154.304 59.235 154.475 59.6493 154.544 60.1232H153.65C153.557 59.6924 153.333 59.3245 152.978 59.0195C152.627 58.7113 152.18 58.5572 151.636 58.5572C151.149 58.5572 150.718 58.6898 150.343 58.9549C149.969 59.2167 149.676 59.583 149.463 60.0536C149.255 60.521 149.15 61.0629 149.15 61.6793C149.15 62.2991 149.253 62.8477 149.459 63.3249C149.664 63.7989 149.952 64.1701 150.324 64.4386C150.698 64.707 151.136 64.8413 151.636 64.8413C151.974 64.8413 152.282 64.7783 152.561 64.6524C152.843 64.5231 153.078 64.3408 153.267 64.1055C153.459 63.8702 153.588 63.5901 153.655 63.2653H154.549C154.483 63.726 154.319 64.137 154.057 64.4982C153.799 64.8562 153.462 65.1379 153.048 65.3434C152.637 65.5489 152.166 65.6516 151.636 65.6516ZM159.533 65.6516C158.821 65.6516 158.204 65.4859 157.684 65.1545C157.164 64.8197 156.761 64.3574 156.476 63.7674C156.194 63.1741 156.053 62.4914 156.053 61.7191C156.053 60.9502 156.194 60.2674 156.476 59.6708C156.761 59.0709 157.154 58.6019 157.654 58.2639C158.158 57.9225 158.74 57.7518 159.399 57.7518C159.814 57.7518 160.213 57.828 160.597 57.9805C160.982 58.1296 161.327 58.36 161.631 58.6715C161.94 58.9798 162.183 59.3692 162.362 59.8399C162.541 60.3072 162.631 60.8607 162.631 61.5004V61.9379H156.665V61.1573H161.726C161.726 60.6668 161.626 60.226 161.428 59.8349C161.232 59.4405 160.959 59.1289 160.607 58.9002C160.259 58.6715 159.857 58.5572 159.399 58.5572C158.915 58.5572 158.489 58.6864 158.122 58.945C157.754 59.2035 157.465 59.5449 157.256 59.9691C157.051 60.3934 156.947 60.8574 156.943 61.3612V61.8285C156.943 62.435 157.048 62.9653 157.256 63.4194C157.469 63.8702 157.769 64.2198 158.156 64.4684C158.544 64.717 159.003 64.8413 159.533 64.8413C159.895 64.8413 160.211 64.7849 160.483 64.6722C160.758 64.5596 160.988 64.4087 161.174 64.2198C161.363 64.0276 161.506 63.8171 161.602 63.5884L162.442 63.8619C162.326 64.1834 162.135 64.48 161.87 64.7518C161.608 65.0236 161.28 65.2423 160.886 65.408C160.495 65.5704 160.044 65.6516 159.533 65.6516ZM165.466 55.3107V65.4926H164.581V55.3107H165.466ZM170.775 65.6516C170.116 65.6516 169.533 65.4843 169.025 65.1495C168.522 64.8148 168.127 64.3524 167.842 63.7624C167.557 63.1692 167.415 62.4847 167.415 61.7092C167.415 60.927 167.557 60.2392 167.842 59.646C168.127 59.0494 168.522 58.5854 169.025 58.2539C169.533 57.9192 170.116 57.7518 170.775 57.7518C171.435 57.7518 172.017 57.9192 172.52 58.2539C173.024 58.5887 173.419 59.0527 173.704 59.646C173.992 60.2392 174.136 60.927 174.136 61.7092C174.136 62.4847 173.994 63.1692 173.709 63.7624C173.424 64.3524 173.028 64.8148 172.52 65.1495C172.017 65.4843 171.435 65.6516 170.775 65.6516ZM170.775 64.8413C171.306 64.8413 171.755 64.6988 172.123 64.4137C172.491 64.1287 172.769 63.7492 172.958 63.2752C173.15 62.8013 173.246 62.2792 173.246 61.7092C173.246 61.1391 173.15 60.6154 172.958 60.1382C172.769 59.6609 172.491 59.2781 172.123 58.9897C171.755 58.7014 171.306 58.5572 170.775 58.5572C170.248 58.5572 169.799 58.7014 169.428 58.9897C169.06 59.2781 168.78 59.6609 168.588 60.1382C168.399 60.6154 168.305 61.1391 168.305 61.7092C168.305 62.2792 168.399 62.8013 168.588 63.2752C168.78 63.7492 169.06 64.1287 169.428 64.4137C169.796 64.6988 170.245 64.8413 170.775 64.8413ZM181.21 59.5316L180.399 59.7603C180.32 59.5316 180.207 59.3245 180.061 59.1389C179.915 58.9533 179.725 58.8058 179.489 58.6964C179.257 58.587 178.969 58.5323 178.624 58.5323C178.107 58.5323 177.683 58.655 177.352 58.9002C177.02 59.1455 176.854 59.462 176.854 59.8498C176.854 60.1779 176.967 60.4447 177.193 60.6502C177.421 60.8524 177.773 61.0132 178.247 61.1325L179.4 61.4158C180.04 61.5716 180.519 61.8185 180.837 62.1566C181.158 62.4947 181.319 62.9189 181.319 63.4293C181.319 63.8602 181.2 64.243 180.961 64.5778C180.722 64.9125 180.389 65.176 179.962 65.3683C179.537 65.5572 179.045 65.6516 178.485 65.6516C177.739 65.6516 177.125 65.4843 176.641 65.1495C176.157 64.8114 175.847 64.3242 175.711 63.6879L176.561 63.4791C176.671 63.9331 176.884 64.2762 177.202 64.5082C177.524 64.7402 177.947 64.8562 178.47 64.8562C179.057 64.8562 179.526 64.7253 179.877 64.4634C180.229 64.1983 180.404 63.8668 180.404 63.4691C180.404 63.1609 180.301 62.9024 180.096 62.6935C179.89 62.4814 179.579 62.3257 179.161 62.2262L177.913 61.9279C177.251 61.7688 176.76 61.5169 176.442 61.1722C176.124 60.8275 175.965 60.4 175.965 59.8896C175.965 59.4686 176.079 59.0991 176.308 58.7809C176.536 58.4594 176.851 58.2075 177.252 58.0252C177.653 57.8429 178.111 57.7518 178.624 57.7518C179.324 57.7518 179.882 57.9109 180.3 58.2291C180.721 58.5439 181.024 58.9781 181.21 59.5316Z" fill="#8D8B88"/>
<path d="M237.085 57.5602C237.085 59.328 239.315 60.7612 242.066 60.7612C244.816 60.7612 247.046 59.3281 247.046 57.5602H237.085Z" fill="#FFCD9B"/>
<path d="M263.979 39.0601H242.066H220.152C220.152 39.0601 216.167 43.0445 216.167 47.0288C216.167 47.0288 230.112 39.0601 233.101 52.0092C233.706 54.6338 234.097 60.974 242.066 57.9858C250.034 60.974 250.425 54.6338 251.03 52.0092C254.019 39.0601 267.964 47.0288 267.964 47.0288C267.964 43.0445 263.979 39.0601 263.979 39.0601Z" fill="#FFDEB7"/>
<path d="M247.121 18.9256C247.121 18.9256 262.062 0 267.042 0C270.031 0 265.05 23.9061 262.062 31.8747L247.121 18.9256Z" fill="#FF8C46"/>
<path d="M267.042 0C257.081 6.97259 253.097 23.9061 253.097 23.9061L252.754 23.8081L247.121 18.9257C247.121 18.9257 262.062 0 267.042 0Z" fill="#FFA54B"/>
<path d="M236.014 18.9256C236.014 18.9256 221.073 0 216.093 0C213.104 0 218.085 23.9061 221.073 31.8747L236.014 18.9256Z" fill="#FF8C46"/>
<path d="M216.093 0C226.054 6.97259 230.038 23.9061 230.038 23.9061L230.381 23.8081L236.014 18.9257C236.014 18.9257 221.073 0 216.093 0Z" fill="#FFA54B"/>
<path d="M213.179 45.8199C213.179 45.8199 224.136 38.8473 232.105 43.8277C236.328 46.4674 235.093 53.7471 242.065 53.7471C249.038 53.7471 247.803 46.4674 252.026 43.8277C259.995 38.8473 270.952 45.8199 270.952 45.8199C265.971 27.8903 253.332 15.9373 242.065 15.9373C230.799 15.9373 218.159 27.8903 213.179 45.8199Z" fill="#FFA54B"/>
<path d="M234.097 40.8395C235.197 40.8395 236.089 39.9475 236.089 38.8473C236.089 37.747 235.197 36.8551 234.097 36.8551C232.997 36.8551 232.105 37.747 232.105 38.8473C232.105 39.9475 232.997 40.8395 234.097 40.8395Z" fill="#464655"/>
<path d="M250.034 40.8395C251.135 40.8395 252.026 39.9475 252.026 38.8473C252.026 37.747 251.135 36.8551 250.034 36.8551C248.934 36.8551 248.042 37.747 248.042 38.8473C248.042 39.9475 248.934 40.8395 250.034 40.8395Z" fill="#464655"/>
<path d="M245.552 53.1867C245.552 54.3901 243.991 56.2372 242.066 56.2372C240.14 56.2372 238.579 54.3901 238.579 53.1867C238.579 51.9833 240.14 51.0077 242.066 51.0077C243.991 51.0077 245.552 51.9833 245.552 53.1867Z" fill="#464655"/>
<path d="M1.95 43V14.65H1L1.7 8H6.4L11.35 7.95L13.75 26.85L16.2 8H25.6V43H18.8V22.1L16.15 38H11.4L8.75 22.1V43H1.95ZM27.6113 36.25V25.15C27.6113 22.5833 28.1613 20.75 29.2613 19.65C30.3947 18.55 32.2447 18 34.8113 18H37.0113C39.578 18 41.4113 18.55 42.5113 19.65C43.6447 20.75 44.2113 22.5833 44.2113 25.15V33.8H34.4113V36.5C34.4113 36.6667 34.4947 36.75 34.6613 36.75H37.1613C37.328 36.75 37.4113 36.6667 37.4113 36.5V34.85H44.2113V36.25C44.2113 38.7833 43.6447 40.6167 42.5113 41.75C41.4113 42.85 39.578 43.4 37.0113 43.4H34.8113C32.2447 43.4 30.3947 42.85 29.2613 41.75C28.1613 40.65 27.6113 38.8167 27.6113 36.25ZM37.4113 24.9C37.4113 24.7333 37.328 24.65 37.1613 24.65H34.6613C34.4947 24.65 34.4113 24.7333 34.4113 24.9V28.15H37.4113V24.9ZM46.7148 43V24.65H45.7148L46.2148 18H53.5148V20.65L55.3148 18H56.1148C59.5815 18 61.7648 19.0833 62.6648 21.25L64.8648 18H65.9148C68.4815 18 70.3148 18.55 71.4148 19.65C72.5482 20.75 73.1148 22.5833 73.1148 25.15V36.35H74.1148L73.6148 43H66.3148V24.9C66.3148 24.7333 66.2315 24.65 66.0648 24.65H63.3148C63.3148 24.7833 63.3148 24.95 63.3148 25.15V43H56.5148V24.9C56.5148 24.7333 56.4315 24.65 56.2648 24.65H53.5148V43H46.7148ZM85.4094 24.9C85.4094 24.7333 85.326 24.65 85.1594 24.65H82.6594C82.4927 24.65 82.4094 24.7333 82.4094 24.9V36.5C82.4094 36.6667 82.4927 36.75 82.6594 36.75H85.1594C85.326 36.75 85.4094 36.6667 85.4094 36.5V24.9ZM75.6094 36.25V25.15C75.6094 22.5833 76.1594 20.75 77.2594 19.65C78.3927 18.55 80.2427 18 82.8094 18H85.0094C87.576 18 89.4094 18.55 90.5094 19.65C91.6427 20.75 92.2094 22.5833 92.2094 25.15V36.25C92.2094 38.7833 91.6427 40.6167 90.5094 41.75C89.4094 42.85 87.576 43.4 85.0094 43.4H82.8094C80.2427 43.4 78.3927 42.85 77.2594 41.75C76.1594 40.65 75.6094 38.8167 75.6094 36.25ZM94.957 43V24.65H93.957L94.457 18H101.757V20.85L103.557 18H107.607V25.65H101.757V43H94.957ZM117.794 43.05C115.227 43.05 113.377 42.5167 112.244 41.45C111.144 40.35 110.594 38.5333 110.594 36V24.7H109.594L110.094 18.05H117.394V36.4H120.394V18.05H127.194V43.5C127.194 46.0333 126.627 47.85 125.494 48.95C124.394 50.0833 122.56 50.65 119.994 50.65H117.794C115.327 50.65 113.51 50.0833 112.344 48.95C111.177 47.8167 110.594 46.0667 110.594 43.7V43.65H117.394V45H120.394V40.4L118.594 43.05H117.794ZM139.108 43V14.65H138.158L138.858 8H153.158L152.758 14.65H145.908V22.15H152.058L151.658 28.8H145.908V43H139.108ZM164.462 24.9C164.462 24.7333 164.379 24.65 164.212 24.65H161.712C161.545 24.65 161.462 24.7333 161.462 24.9V36.5C161.462 36.6667 161.545 36.75 161.712 36.75H164.212C164.379 36.75 164.462 36.6667 164.462 36.5V24.9ZM154.662 36.25V25.15C154.662 22.5833 155.212 20.75 156.312 19.65C157.445 18.55 159.295 18 161.862 18H164.062C166.629 18 168.462 18.55 169.562 19.65C170.695 20.75 171.262 22.5833 171.262 25.15V36.25C171.262 38.7833 170.695 40.6167 169.562 41.75C168.462 42.85 166.629 43.4 164.062 43.4H161.862C159.295 43.4 157.445 42.85 156.312 41.75C155.212 40.65 154.662 38.8167 154.662 36.25ZM172.289 43L176.639 30.5L172.289 18H179.039L181.039 26L182.989 18H189.739L185.389 30.5L189.739 43H182.989L181.039 35L179.039 43H172.289Z" fill="url(#paint0_linear_4_2)"/>
<defs>
<linearGradient id="paint0_linear_4_2" x1="0" y1="41.194" x2="193.593" y2="13.317" gradientUnits="userSpaceOnUse">
<stop stop-color="#FF8C46"/>
<stop offset="1" stop-color="#EE9A67"/>
</linearGradient>
</defs>
</svg>
