<svg width="58" height="61" viewBox="0 0 58 61" fill="none" xmlns="http://www.w3.org/2000/svg">
<path d="M23.9061 57.5602C23.9061 59.328 26.1359 60.7612 28.8865 60.7612C31.6372 60.7612 33.8669 59.3281 33.8669 57.5602H23.9061Z" fill="#4F4E4E"/>
<path d="M50.8004 39.0601H28.8865H6.97259C6.97259 39.0601 2.98822 43.0445 2.98822 47.0288C2.98822 47.0288 16.9334 39.0601 19.9217 52.0092C20.5273 54.6338 20.9178 60.974 28.8865 57.9858C36.8552 60.974 37.2457 54.6338 37.8513 52.0092C40.8395 39.0601 54.7848 47.0288 54.7848 47.0288C54.7846 43.0445 50.8004 39.0601 50.8004 39.0601Z" fill="#676666"/>
<path d="M33.9416 18.9256C33.9416 18.9256 48.8829 0 53.8633 0C56.8515 0 51.8711 23.9061 48.8829 31.8747L33.9416 18.9256Z" fill="#565554"/>
<path d="M53.8633 0C43.9024 6.97259 39.918 23.9061 39.918 23.9061L39.5752 23.8081L33.9416 18.9257C33.9416 18.9257 48.8828 0 53.8633 0Z" fill="#2A2A29"/>
<path d="M22.8353 18.9256C22.8353 18.9256 7.894 0 2.9136 0C-0.0746202 0 4.90578 23.9061 7.894 31.8747L22.8353 18.9256Z" fill="#565554"/>
<path d="M2.91364 0C12.8744 6.97259 16.8588 23.9061 16.8588 23.9061L17.2017 23.8081L22.8352 18.9257C22.8352 18.9257 7.89404 0 2.91364 0Z" fill="#2A2A29"/>
<path d="M0 45.8199C0 45.8199 10.957 38.8473 18.9256 43.8277C23.1489 46.4674 21.9138 53.7471 28.8864 53.7471C35.859 53.7471 34.6238 46.4674 38.8472 43.8277C46.8159 38.8473 57.7727 45.8199 57.7727 45.8199C52.7923 27.8903 40.1525 15.9373 28.8864 15.9373C17.6203 15.9373 4.9804 27.8903 0 45.8199Z" fill="#2A2A29"/>
<path d="M20.9178 40.8395C22.018 40.8395 22.91 39.9475 22.91 38.8473C22.91 37.747 22.018 36.8551 20.9178 36.8551C19.8175 36.8551 18.9256 37.747 18.9256 38.8473C18.9256 39.9475 19.8175 40.8395 20.9178 40.8395Z" fill="white"/>
<path d="M36.8553 40.8395C37.9555 40.8395 38.8475 39.9475 38.8475 38.8473C38.8475 37.747 37.9555 36.8551 36.8553 36.8551C35.755 36.8551 34.8631 37.747 34.8631 38.8473C34.8631 39.9475 35.755 40.8395 36.8553 40.8395Z" fill="white"/>
<path d="M32.3729 53.1867C32.3729 54.3901 30.8119 56.2372 28.8866 56.2372C26.9612 56.2372 25.4003 54.3901 25.4003 53.1867C25.4003 51.9833 26.9612 51.0077 28.8866 51.0077C30.8119 51.0077 32.3729 51.9833 32.3729 53.1867Z" fill="white"/>
</svg>
